<svg xmlns="http://www.w3.org/2000/svg" xmlns:xlink="http://www.w3.org/1999/xlink" width="98.144" height="78.987" viewBox="0 0 98.144 78.987">
  <defs>
    <clipPath id="clip-path">
      <rect id="사각형_147" data-name="사각형 147" width="98.144" height="78.987" transform="translate(0 0)" fill="#fff"/>
    </clipPath>
  </defs>
  <g id="그룹_316" data-name="그룹 316" transform="translate(-44 -14)" opacity="0.47">
    <g id="그룹_315" data-name="그룹 315" transform="translate(44 14)" clip-path="url(#clip-path)">
      <path id="패스_399" data-name="패스 399" d="M35.915,69.664v4.8H26.737a2.211,2.211,0,0,0-2.2,2.2v.118a2.21,2.21,0,0,0,2.2,2.2h44.67a2.21,2.21,0,0,0,2.2-2.2v-.118a2.211,2.211,0,0,0-2.2-2.2H61.135v-4.8Z" fill="#fff"/>
      <path id="패스_400" data-name="패스 400" d="M0,56.021v7.543C0,66.13,2.46,68.23,5.476,68.23H92.664c3.013,0,5.481-2.1,5.481-4.666V52.733H0Z" fill="#fff"/>
      <path id="패스_401" data-name="패스 401" d="M92.636,0H5.509A5.524,5.524,0,0,0,0,5.508V49.93H4.337V10.045A5.782,5.782,0,0,1,10.2,4.388h78.1A5.925,5.925,0,0,1,92.662,6.3a5.5,5.5,0,0,1,1.511,3.748V49.93h3.972V5.508A5.524,5.524,0,0,0,92.636,0" fill="#fff"/>
      <path id="패스_403" data-name="패스 403" d="M44.1,14.746a10.3,10.3,0,1,0,6.833,18l2.281,1.977a.692.692,0,0,0,.972-.069l.9-1.041a.692.692,0,0,0-.069-.972L52.728,30.66A10.293,10.293,0,0,0,44.1,14.746m0,17.924a7.622,7.622,0,1,1,7.622-7.622A7.63,7.63,0,0,1,44.1,32.67" fill="#fff"/>
      <path id="패스_404" data-name="패스 404" d="M54.413,36.451,61.54,42.4a.709.709,0,0,0,.981-.079l1.663-1.919a.675.675,0,0,0-.077-.962l-7.128-5.953a.706.706,0,0,0-.98.079l-1.664,1.919a.676.676,0,0,0,.078.962" fill="#fff"/>
    </g>
  </g>
</svg>
