<svg xmlns="http://www.w3.org/2000/svg" xmlns:xlink="http://www.w3.org/1999/xlink" width="179.537" height="21.379" viewBox="0 0 179.537 21.379">
  <defs>
    <linearGradient id="linear-gradient" x1="0.503" y1="-12.251" x2="0.503" y2="-13.249" gradientUnits="objectBoundingBox">
      <stop offset="0.005" stop-color="#f08719"/>
      <stop offset="1" stop-color="#ed701a"/>
    </linearGradient>
    <linearGradient id="linear-gradient-2" x1="0.5" y1="-11.857" x2="0.5" y2="-12.848" gradientUnits="objectBoundingBox">
      <stop offset="0.005" stop-color="#f5af16"/>
      <stop offset="1" stop-color="#f5a717"/>
    </linearGradient>
  </defs>
  <g id="logo" transform="translate(-0.4 -2.4)">
    <g id="그룹_318" data-name="그룹 318" transform="translate(0.4 4.545)">
      <g id="그룹_317" data-name="그룹 317">
        <path id="패스_405" data-name="패스 405" d="M14.057,10.477H10.339V12.55h3.718v9.939h2.5V5.4H14.128v5.077ZM9.409,13.408a2.573,2.573,0,0,0-1-.787,4.16,4.16,0,0,0-1.144-.358c.143-.5.286-1.073.429-1.645a15.1,15.1,0,0,0,.143-1.859,12.841,12.841,0,0,0-.143-1.573,5.081,5.081,0,0,0-.5-1.573L4.762,6.4a3.6,3.6,0,0,1,.358,1.144,10.047,10.047,0,0,1,.143,1.287,9.667,9.667,0,0,1-.286,2.646,7.692,7.692,0,0,1-.93,2.074,11.711,11.711,0,0,1-1.5,1.788C1.9,15.911,1.258,16.483.4,17.126l1.43,1.788A30.213,30.213,0,0,0,4.547,16.7a10.668,10.668,0,0,0,1.931-2.5,1.875,1.875,0,0,1,.644.358,1.671,1.671,0,0,1,.5.5,11.64,11.64,0,0,1,1.144,1.716q.644,1.073,1.5,2.36l1.788-1.287c-.572-.93-1.073-1.716-1.5-2.431A15.2,15.2,0,0,0,9.409,13.408Zm23.023-.5a17.464,17.464,0,0,1-1.716.715,14.278,14.278,0,0,1-1.859.358,20.624,20.624,0,0,0,.644-3.289,27.809,27.809,0,0,0,.286-3.361,1.748,1.748,0,0,0-.429-1.287A1.82,1.82,0,0,0,28,5.615H20.134v2h6.721c.143,0,.286.072.429.072a.684.684,0,0,1,.143.5,8.676,8.676,0,0,1-.072,1.287l-.214,1.5c-.072.5-.215,1.073-.286,1.573-.143.5-.215,1-.358,1.5H19.133v2h4.576v6.292h2.5V16.054h1.073a17.188,17.188,0,0,0,2.646-.215,7.716,7.716,0,0,0,2.574-.787v7.436h2.5V5.4H32.5l-.071,7.508ZM52.023,5.829H39.082v2H52.023Zm-5.077,9.653h5.22v-2h-2.5a6.292,6.292,0,0,0,.358-1.073,5.557,5.557,0,0,0,.143-1.144V8.689H47.8v2.86a5.065,5.065,0,0,1-.071,1c-.071.358-.143.715-.215,1H43.8a2.651,2.651,0,0,1-.286-1,4.721,4.721,0,0,1-.071-1V8.689h-2.36v2.646a5.67,5.67,0,0,0,.143,1.216,3.592,3.592,0,0,0,.357.93h-2.5v2h5.363v3.146H37.509v2H54.025v-2H46.947V15.482Zm17.518-2.074a3.763,3.763,0,0,0-1-.858,6.039,6.039,0,0,0-1.216-.358,7.834,7.834,0,0,0,.429-1.859A9.78,9.78,0,0,0,62.82,8.26a9.69,9.69,0,0,0-.143-1.43,5.229,5.229,0,0,0-.5-1.359l-2.36.787c.143.286.215.572.358.93a5.519,5.519,0,0,1,.143,1.073,10.568,10.568,0,0,1-.286,2.717,8.583,8.583,0,0,1-.93,2.217,9.973,9.973,0,0,1-1.5,1.931,19.109,19.109,0,0,1-2.145,1.859l1.43,1.788a20.642,20.642,0,0,0,2.646-2.217,11.026,11.026,0,0,0,1.931-2.574,2.237,2.237,0,0,1,.715.358,1.927,1.927,0,0,1,.572.5,11.64,11.64,0,0,1,1.144,1.716q.644,1.073,1.5,2.36l1.859-1.287c-.572-.93-1.073-1.716-1.5-2.431C65.251,14.552,64.893,13.909,64.464,13.408ZM68.826,5.4V22.489h2.5V5.4Z" transform="translate(-0.4 -5.4)" fill="#2d2e2e"/>
      </g>
    </g>
    <g id="그룹_321" data-name="그룹 321" transform="translate(80.909 2.686)">
      <g id="그룹_320" data-name="그룹 320">
        <g id="그룹_319" data-name="그룹 319">
          <path id="패스_406" data-name="패스 406" d="M116.432,20.461V14.383h8.437V11.452h-8.437V5.875h9.8V2.8H113V23.535h13.585V20.461Z" transform="translate(-113 -2.8)" fill="url(#linear-gradient)"/>
        </g>
      </g>
    </g>
    <g id="그룹_324" data-name="그룹 324" transform="translate(96.496 2.4)">
      <g id="그룹_323" data-name="그룹 323">
        <g id="그룹_322" data-name="그룹 322">
          <path id="패스_407" data-name="패스 407" d="M134.8,14.484h10.582v-2.86H134.8Zm10.511-8.723h5.649V23.421h3.361V5.761h5.649V2.686H145.311V5.761Zm17.16,17.661h3.361V8.478h-3.361Zm1.645-20.95a1.831,1.831,0,0,0-1.359.572,1.948,1.948,0,0,0-.5,1.43,1.727,1.727,0,0,0,1.859,1.859,2.061,2.061,0,0,0,1.43-.5,1.831,1.831,0,0,0,.572-1.359,2,2,0,0,0-.572-1.43A2.049,2.049,0,0,0,164.115,2.472Zm13.013,17.875a5.371,5.371,0,0,1-1.859.358,3.9,3.9,0,0,1-1.573-.358,3.27,3.27,0,0,1-1.144-1.073,3.66,3.66,0,0,1-.715-1.5,7.188,7.188,0,0,1-.286-1.788,5.332,5.332,0,0,1,.286-1.859,4.868,4.868,0,0,1,.715-1.5,3.726,3.726,0,0,1,1.144-1,3.64,3.64,0,0,1,1.573-.358,8.925,8.925,0,0,1,1.5.143,6.93,6.93,0,0,1,1.5.715l1.43-2.288a12.2,12.2,0,0,0-1.931-1,6.927,6.927,0,0,0-2.574-.429,6.539,6.539,0,0,0-2.932.644,6.331,6.331,0,0,0-2.145,1.716,7.361,7.361,0,0,0-1.359,2.431,10.084,10.084,0,0,0-.5,2.932,8.412,8.412,0,0,0,.5,3.075,7.362,7.362,0,0,0,1.359,2.431,5.973,5.973,0,0,0,2.145,1.573,7.651,7.651,0,0,0,2.932.572,7.2,7.2,0,0,0,2.574-.429,7.715,7.715,0,0,0,2.288-1.359l-1.5-2.217C178.2,19.918,177.7,20.132,177.128,20.347Zm16.517-9.867-2.36-2.217-5.649,6.221V7.548A5.25,5.25,0,0,0,182.419,2.4L180.7,5.189a7.491,7.491,0,0,1,.787.572,3.929,3.929,0,0,1,.5.644,2.562,2.562,0,0,1,.286.787,5.426,5.426,0,0,1,.072,1.144V23.35h3.289V17.272l6.149,6.292,2.288-2.074-5.434-5.72Zm7.937-2.217a7.162,7.162,0,0,0-2.789.5,6.758,6.758,0,0,0-2.217,1.5,6.267,6.267,0,0,0-1.43,2.431,9.356,9.356,0,0,0-.5,3.289,8.168,8.168,0,0,0,.644,3.432,7,7,0,0,0,1.645,2.36,5.543,5.543,0,0,0,2.36,1.359,8.643,8.643,0,0,0,2.717.429,9.645,9.645,0,0,0,3.146-.5,12.609,12.609,0,0,0,2.789-1.287l-1.216-2.717c-.5.286-1.144.644-1.93,1a6.579,6.579,0,0,1-2.717.5,4.3,4.3,0,0,1-2.86-.93,3.143,3.143,0,0,1-1.073-2.5h10.082V16.2a9.036,9.036,0,0,0-1.716-5.935A6.067,6.067,0,0,0,201.581,8.263Zm-3.5,6.292a3.591,3.591,0,0,1,1.144-2.5,3.483,3.483,0,0,1,2.431-.858,2.935,2.935,0,0,1,2.431.93,3.331,3.331,0,0,1,.787,2.431ZM216.6,20.418a1.472,1.472,0,0,1-1.216-.429,2.045,2.045,0,0,1-.357-1.216V12.339h3V9.407h-3V5.046h-3.361V9.407h-1.931v2.932h1.931V19.06a3.848,3.848,0,0,0,.286,1.573,4.238,4.238,0,0,0,.786,1.359,3.083,3.083,0,0,0,1.359.93,4.782,4.782,0,0,0,1.859.358h2.288V20.347l-1.645.072Z" transform="translate(-134.8 -2.4)" fill="url(#linear-gradient-2)"/>
        </g>
      </g>
    </g>
  </g>
</svg>
