<svg xmlns="http://www.w3.org/2000/svg" xmlns:xlink="http://www.w3.org/1999/xlink" width="90.954" height="35.427" viewBox="0 0 90.954 35.427">
  <defs>
    <clipPath id="clip-path">
      <rect id="사각형_3" data-name="사각형 3" width="90.954" height="35.427" fill="none"/>
    </clipPath>
  </defs>
  <g id="그룹_2" data-name="그룹 2" transform="translate(0 0)">
    <g id="그룹_1" data-name="그룹 1" transform="translate(0 0)" clip-path="url(#clip-path)">
      <path id="패스_1" data-name="패스 1" d="M68.591.1a.427.427,0,0,0-.17-.087c-.266-.051-.524.138-.927.453l-.3.234c-1.089.577-1.917,3.289-2.1,4.4-.033.018-.058.031-.115.063a4.748,4.748,0,0,0-3.16-2.384c.5,1.928,2.2,7.748,4.458,7.244,1.147-.255,3.542-5.085,3.565-7.743v-.1C69.821.772,69.171.265,68.591.1" transform="translate(-10.888 0)" fill="#ed6b00"/>
      <path id="패스_2" data-name="패스 2" d="M86.89,36.089c-2.832.118-3.771-.03-6.551.878a2.31,2.31,0,0,0-1.031.731c.042.585-.307,1.507.238,1.728.026,0,.026.091.054.139.159.161.325.185.487.389.1.148.188-.014.3.044.052.054.079.144.132.157.274.129.521.077.792.206a.686.686,0,0,0,.412.11c.083-.03.191.163.217.209a3.412,3.412,0,0,0,1.513.013c1.569-.024,1.275-.178,2.842-.2,1.321-.019,2.612.181,3.931.163.718-.023,1.5,0,2.207-.05,1.266-.073,2.534.12,3.8.136.633-.016,1.37.234,2.009.281a9.875,9.875,0,0,1,2.035-.034,1.808,1.808,0,0,1,.667.087,1.761,1.761,0,0,0,.624.222,4.1,4.1,0,0,0,1.737-.4,4.019,4.019,0,0,0,1.025-.371.912.912,0,0,0,.373-.587,2.418,2.418,0,0,0,.124-1.532c-.032,0-.114.037-.144-.012-.058-.092-.045-.311-.128-.319a6.15,6.15,0,0,0-.758-.186c-.335-.068-.681-.222-1.013-.288a86.311,86.311,0,0,0-15.9-1.508" transform="translate(-13.957 -6.353)" fill="#00905f"/>
      <path id="패스_3" data-name="패스 3" d="M45.524,37.105c.286.064.61.056.763.246.154.149-.149.391-.13.587-.006.468.167.891.163,1.354a.307.307,0,0,1-.118.241,1.287,1.287,0,0,1-.342.32c-.4.25-.917.154-1.369.287a9.711,9.711,0,0,1-1.826.3,23.078,23.078,0,0,1-3.261-.152,3.27,3.27,0,0,0-1.236.165,5.063,5.063,0,0,1-1.524.1c-2.65-.1-5.253-.152-7.893-.128-.465.016-.97.073-1.433.091-2.121.119-4.24.081-6.367.137-.74.019-1.476.043-2.222.022-.411.009-.833.021-1.2.028-1.568.082-3.179.153-4.758.087-.6.009-1.245.009-1.848.019a48.79,48.79,0,0,1-5.307.279A8.979,8.979,0,0,1,1.9,40.112,5,5,0,0,1,0,38.418a2.1,2.1,0,0,1,1.259-.676c1.184-.317,2.282-.522,3.473-.726,1.008-.168,1.929-.252,2.9-.338a239.138,239.138,0,0,1,32.494-.341,35.516,35.516,0,0,1,5.4.768" transform="translate(0 -6.331)" fill="#0061b1"/>
      <path id="패스_4" data-name="패스 4" d="M82.222,21.822v.147c.112.289.336.361.565.577h.736c0-.143.171,0,.171-.143a.619.619,0,0,0,.538-.288h.121a.629.629,0,0,1,.549-.367c.3-.364.6-.725.907-1.087a.417.417,0,0,1,.181-.366,12.909,12.909,0,0,1,.6-2.035c0-.217.121-.511.059-.728.062,0,.12,0,.12-.071-.058-.292.121-.437.245-.581.119,0,.241,0,.3-.144v-.147a1.274,1.274,0,0,1,.883.507h.4c0,.147.077.147.16.22a4.164,4.164,0,0,1,1.339.072c0,.216.32.143.4.361a2.068,2.068,0,0,0,.24.657.255.255,0,0,1-.081.218c.158.218.32.582.081.8.077.288,0,.652.159.943-.159.145-.082.366-.082.51A3.828,3.828,0,0,1,91.06,21.9c.318.363.236.8.479,1.163v.434c.158,0,0,.217.158.217a8.209,8.209,0,0,1-.158,1.385c-.082.073-.161.145-.242.217v.147c-.078,0-.159,0-.159-.073-.158.215-.4.363-.559.581-.157-.074-.238.07-.316.07-.161,0,0,.222-.161.222a.642.642,0,0,0-.4.145c-.16.073-.7-.073-.862.073l-.078-.073a.436.436,0,0,1-.318.146c0-.073,0-.146-.082-.146a.573.573,0,0,1-.637.288c-.07-.143-.042-.252-.223-.32a2.941,2.941,0,0,0-.3-1.247c.059,0,.059-.064.059-.126a2.275,2.275,0,0,1-.18-.6c-.185-.259-.243-.652-.485-.848.059-.068-.121-.133-.061-.2l-.3-.326c-.121,0-.121.067-.179.13-.062.329-.367.592-.424.923l-.06-.068c-.063.194-.243.326-.243.526-.122.063-.182.262-.3.326V25c-.424.393-.653,1.025-1.163,1.3-.124.273-.444.329-.573.634a2.861,2.861,0,0,0-.727.152c-.156-.076-.394-.231-.552-.076,0-.077-.08-.077-.159-.077l-.077.077c-.16-.155-.4,0-.634-.077a10.177,10.177,0,0,0-1.583-.84c-.161,0,0-.231-.161-.231a.283.283,0,0,1-.232-.076c0-.23.076-.383-.162-.535l.079-.077c0-.077-.079-.077-.155-.077-.08-.458-.316-.841-.4-1.3-.084-.078-.084-.078-.159-.155a1.362,1.362,0,0,0-.16-.61c-.077-.3.2-.564.044-.854a.257.257,0,0,1,.075-.214,1.994,1.994,0,0,1,.078-.947c-.078,0-.078-.072-.078-.146a1.759,1.759,0,0,0,.153-.872c.073-.219.227-.435.3-.656l-.073-.071c.148-.147.073-.367.3-.512,0-.069,0-.143-.077-.143,0-.147.15-.218.227-.292A3.19,3.19,0,0,1,79.7,17.5l-.058-.084a1.073,1.073,0,0,1,.737-.291,1.726,1.726,0,0,1,.7.244c.088.171,0,.308.118.524h.115v.147c0,.072.056.072.11.072a1.285,1.285,0,0,1,.114.652c0,.075.058.075.116.075-.058.143.114.29.114.437-.114.145,0,.362-.058.58.171.364.114.8.282,1.164a1.811,1.811,0,0,0,.229.8" transform="translate(-13.773 -2.922)" fill="#1a1311"/>
      <path id="패스_5" data-name="패스 5" d="M47.363,24.354a1.625,1.625,0,0,1,.376.332.935.935,0,0,0,.344.364,2.252,2.252,0,0,1,.308.15l.1.2.246.227c.26.078.314-.074.512.2.087,0,.173,0,.173.077l.087-.077c.087.157.26.232.35.307a1,1,0,0,1,.663.252c.084,0,.1.176.1.1.267.069.448.251.622.093.086,0,.174,0,.174.077l.086-.077c.174-.078.213.131.386.054.09,0,.09.077.09.157h.172c.176.154.917-.052,1.094.106a12.629,12.629,0,0,0,2.589-.1c.008-.152.251.009.257-.138l.08.079c.328.09.681-.291,1.005-.129.089-.068.089-.068.175-.137.17-.068.408.243.583.026,0,.074.082.077.162.083.006-.076.006-.076.009-.149.256-.137.569-.1.76-.3.083.007.248.025.333.034l.179-.132c.433-.1.809-.442,1.3-.556.076-.082.24-.1.311-.25.084-.008.164-.016.249-.022.075-.077.155-.161.227-.24.257.049.48-.3.727-.339-.012-.071-.026-.146.058-.16l.095.059c.152-.1.152-.1.208-.258.259.035.4-.281.538-.452.082-.013.082-.013.166-.025.067-.087.067-.087.14-.172a1.562,1.562,0,0,1,.165-.027c.221-.187.35-.431.662-.557-.01-.072-.022-.146.06-.16.175.049.138-.172.209-.256.069-.051.286-.206.346-.137-.011.123.216-.315.2-.2.057.077.344-.67.413-.717l-.7-1.812c-.255.363-1.167,1.55-1.653,1.657.008.381-.414.4-.7.619.017.072.038.143-.048.166-.243.051-.347.324-.509.36-.019-.072-.1-.054-.182-.033-.064.087-.223.125-.269.288-.244.058-.316.3-.456.466l-.1-.062c-.293.271-.718.244-.917.574-.472.218-.875.3-1.363.48-.082,0-.166.011-.168-.064-.073.154-.417.026-.491.182a8.859,8.859,0,0,0-1.415.1c-.007-.149-.248.013-.256-.133-.409.174-.825-.057-1.242-.057-.084-.074-.25-.074-.334-.222a.966.966,0,0,1-.917-.221c-.25,0-.418-.221-.667-.3V23.4l-.168-.148c0-.222.25-.222.417-.3.168-.222.618-.168.783-.392,0-.076.224-.219.224-.294.082-.146.143-.288.222-.288.252-.148.09-.317.421-.393,0-.072.265-.258.178-.33.335-.219.327-.349.41-.793.169-.222.412-.466.412-.759.083-.074-.02-.4.152-.473.081-.515-.136-.792-.136-1.31-.083-.074-.083-.074-.166-.145,0-.224-.166-.373-.083-.6-.247-.222-.189-.294-.438-.513l-.145-.153h-.166c-.084-.149-.334-.221-.334-.369a5.922,5.922,0,0,1-1-.444l-.083.074-.084-.074-.168.147c0-.224-.249,0-.33-.147-.171,0-.335-.077-.5.074-.5-.151-1.041.108-1.541-.11,0,.146-.335-.073-.335.146-.167.072-.407.068-.49.143h-.25a1.307,1.307,0,0,1-.96.479c-.168,0,0,.222-.168.222h-.165a8.606,8.606,0,0,1-1.25,1.112c0,.072-.167.145-.083.3,0,.072-.084.072-.169.072a.377.377,0,0,1-.166.3c0,.072,0,.149.083.149,0,.071-.128.264-.211.264-.081.294-.081.591-.332.74,0,.589-.173.875-.212,1.524a8.708,8.708,0,0,1,.086,1.177c.26.157-.064.147.11.377.085,0,.039.138.039.215.086.154.365.264.274.419,0,.078.148.147.235.147.087.156-.129.327.049.4,0,.079.277.018.186.173ZM52.8,19.532c-.171.077,0,.235-.171.313l.084.076a3.036,3.036,0,0,1-1.345,2.114c-.083,0-.171,0-.171-.075,0-.16-.166-.395-.081-.549,0-.078-.086-.078-.171-.078.171-.159-.114-.313-.028-.548-.086,0-.086-.077-.086-.157.253-.157.046-.562.3-.716l-.081-.078a2.129,2.129,0,0,1,.382-.556v-.157a3.346,3.346,0,0,1,1.2-.6c.084,0,.171,0,.171.076.25.316.084.624,0,.939" transform="translate(-8.144 -2.76)" fill="#1a1311"/>
      <path id="패스_6" data-name="패스 6" d="M69.717,18.846c.008.1.019.206.032.3.569.55.46,1.5.838,2.169-.182.232-.051.526-.129.744.112.09.112.09.219.18-.147.536.211,1.006.162,1.532-.092.115-.092.115-.186.231.008.1.023.2.125.188l-.091.115.11.09-.089.119c.1-.014.11.09.118.19-.178.228.157.5-.129.738a.368.368,0,0,1,.131.3c-.281.244-.109.681-.308,1l.1.1-.1.109-.106-.1c-.1,0-.1.107-.1.209.11.2.316.4.117.609l.11.1a1.27,1.27,0,0,0-.483.779c-.095.1-.095.1-.186.208a.357.357,0,0,1,.1.291c-.184.207-.277.408-.461.616,0,.1.1.29-.087.4l.1.092c-.092.2-.181.5-.268.7.094-.006.094.093.1.194-.281.208-.606.433-.5.822-.18.3-.415.409-.6.713.1.194-.337.28-.33.478s-.283.112-.182.3l.1.094c-.1,0-.1,0-.19.012a.467.467,0,0,1-.278.308c0,.1,0,.2-.093.2a3.615,3.615,0,0,0-.437.489c.1.092-.3.3-.21.3a.552.552,0,0,0-.23.378c-.091,0-.185-.009-.2.092l0,.128c-.067.068-.083.064-.222.1-.746.848-1.83,1.184-2.575,2.028-.2.091-.4.175-.6.266s-.135.386-.31.277c.008-.1-.257.084-.353.082-.208.184-.519.05-.71.04.007-.1-.105-.077-.191-.179l-.108.089c-.084-.1-.3-.3-.395-.306-.083-.1.1-.2.01-.207l.1-.1c.009-.1-.147-.119-.243-.128-.171-.2.194-.049.118-.25l-.372-.034c-.088-.194-.27-.2-.35-.4.02-.194.438-.191.453-.386.192.008.136-.022.338-.112l-.071-.14c.205-.092.174-.26.265-.254-.009.1.072-.015.165-.008s.19.008.2-.091a.377.377,0,0,1,.12-.287l.194.01a4.123,4.123,0,0,0,.574-.595c.008-.1.008-.1.018-.2.1-.092.119-.288.321-.377-.01.1-.022.2.076.2.3-.18.121-.288.045-.487.1-.1.1-.1.209-.186-.008.1.159.023.064.02-.008.1.1-.232.2-.226.236-.364.063.067.413-.6.072-.076.252-.146.269-.193-.021-.008.22-.1.135-.2-.011-.08.023-.11-.173-.021.112-.189.448-.48.463-.675.276.11.057-.331.244-.32-.1.091-.2-.1-.194,0l.316-.012c.21-.185-.294-.176-.1-.386,0-.1-.033-.154-.128-.147,0-.1-.026-.179.071-.186l.1.094c.093-.1-.09-.433.1-.541,0-.1-.006-.2-.006-.294.278-.211.153-.177.239-.479l-.095-.091c0,.095.2-.093.11-.089,0-.1,0-.1,0-.2.189-.109.323-.763.316-.96.007.2-.223-.448-.031-.359.276-.409.086-.954.131-1.457-.2-.077.154-.216.043-.4-.1.008-.189.025-.2-.074.083-.111.083-.111.166-.22-.008-.1-.018-.2-.11-.185-.012-.1-.02-.2.072-.207-.012-.1-.019-.194-.113-.185.083-.112.083-.112.169-.222-.011-.095-.105-.087-.2-.072.056-.407-.35-.7-.2-1.11-.1.012-.105-.084-.115-.185.255-.33-.09-.724.066-1.041-.2-.075-.123-.283-.147-.48.087-.11-.157-.207-.165-.3a6.753,6.753,0,0,1-.325-1.334c-.19.169-.325-1.368-.49-1.966-.246-.387-.08-.819-.226-1.214.1-.014.2-.03.194-.129-.132-.294.166-.434.231-.751.205-.026.4-.156.625.023.193-.125.069-.318.058-.419l1.117-.141c.015.1.02.2.126.19.3-.036.43.152.731.115.01.1.021.207.123.194a.511.511,0,0,1,.427.156c.1-.017.206-.027.194-.129l.115.087.091-.115a.36.36,0,0,0,.312.063c.115.092.145.4.339.27a25.7,25.7,0,0,1,1.46,2.2" transform="translate(-10.57 -2.786)" fill="#1a1311"/>
      <path id="패스_7" data-name="패스 7" d="M16.945,19.413c-.035-.163-.274-.212-.37-.217s-.283.205-.377.045a1.637,1.637,0,0,1-.357.4.593.593,0,0,1-.336.08c-.049.25-.077.278.145.864.1.019.2.58.31.6-.046-.217.292.467.4.562.068.016.068.016.138.034s.038.081.006.142l.3.216c.03.082.1.106.021.223a1.685,1.685,0,0,1,.58.241c.063.03.024.086-.016.143.063.026.13.058.169,0,.171,0,.049.17.075.254l.1-.027c.026.083.154.142.154.142.208.311,1.2.686,1.448.966l.1-.045c.075.16.512.191.512.4l.092-.054c.045.074.7.2.884.3.091-.058-.037-.156.063-.205.1.1.333.3.44.4a4.223,4.223,0,0,1,.484.069c.254.268.78.1,1.09.243a.214.214,0,0,0,.174.11l.1-.049.039.08c.193-.1.3,0,.43-.118l.038.081.094-.05c.041.077.041.077.078.16.272.061.518.187.807.038a.217.217,0,0,0,.175.11c.1-.047.1-.047.2-.1.2.044.243.126.475.106l.038.082a.981.981,0,0,1,.767-.043c.059-.128.205.049.263-.083l.036.082c.227-.163.574-.076.809-.089l.036.082c.1-.049.062.007.062.007.194-.092.671-.1.8-.208a1.035,1.035,0,0,0,.629.072c.076.019.226.054.3.076a.714.714,0,0,1,.824-.045,4.525,4.525,0,0,0,1.03-.431c.073.026.152.045.229.068.11-.039.183-.017.259-.138a3.611,3.611,0,0,0,.879-.435c.032.084.219-.077.259.006.037-.061.037-.061.077-.121.148.043.259-.138.407-.094.04-.063.04-.063.077-.124.226-.077.136-.134.359-.209.192-.132.461-.578.9-.775-.01-.143.278-.219.344-.349.03-.064.109-.046.181-.028l-.045-.082c.11-.046.081-.26.181-.166.028-.063.157-.228.093-.246.214-.166.212-.709.524-.779.028-.068.028-.068.057-.128.126-.169.075-.484.147-.521.026-.064-.011-.111.056-.093.079-.251.14-.636.215-.971-.064-.016-.035-.082-.007-.145.065.016.091-.049.119-.11-.064-.015-.035-.082-.008-.147l.092-.05c-.132-.027.017-.2-.112-.233l.087-.054c-.11-.3.049-.619-.058-.924l.084-.049a.4.4,0,0,1,0-.54.238.238,0,0,1,0-.212c-.174-.109.037-.224-.072-.32.065-.2-.15-.388-.021-.569-.086-.16-.1-.227-.2-.383.02-.068.038-.136.057-.2-.064-.014-.129-.024-.115-.092.1-.119-.007-.211.028-.344-.129-.027-.06-.138-.105-.216a1.85,1.85,0,0,0-.348-.934c.087-.131-.094-.657-.083-.818l-.129-.068a.6.6,0,0,0-.241-.344c.007-.081.007-.081.011-.161-.067,0-.131-.007-.127-.091s.007-.081.014-.164l-.073.081a.465.465,0,0,1-.169-.421c-.241-.341-.332-.584-.676-1.075-.135.078,0-.259-.166-.183a1.93,1.93,0,0,0-.581-.777c.007-.081.007-.081.016-.166-.075,0-.075,0-.151,0s-.067-.08-.058-.166c-.431-.26-1.955-.474-2.188-.9-.134,0-.262-.091-.339.071-.062-.086-.062-.086-.12-.17-.356.237-.656-.185-.989-.278l-.071.08c-.114-.251-.334-.012-.47-.016a.2.2,0,0,0-.192-.088c-.352.152-.671-.022-.972.382l-.061-.084.76,1.419a6.072,6.072,0,0,0,.4,1.4c.067.018.154.176.205.265-.021.079-.021.079-.036.157.1.185.2.367.3.554-.067-.018-.083.061-.1.14.082.262.077.541.156.8.107.1-.017.151.1.27.011.012-.069.166-.055.176a.4.4,0,0,0,.034.28c.039.283.025.058.22.261-.18.217.127.571-.06.787.1.1.106-.043.136.041a1,1,0,0,0-.064.111c-.035.058.03.081.094.105.062.16-.051.255.033.409.066.014,0,.213.073.227.015.143.2.187.026.287-.067-.016-.03.274-.1.463a1.151,1.151,0,0,1-.019.472c.064.015.109-.063.086,0s-.021.063-.044.127c.063.012.057.129.034.2,0,.2-.133.306-.2.5-.073.413.143.749-.138.9.1.088-.02.2-.051.262-.1.047-.069.247-.155.3-.1.256-.152.241-.258.493-.17.1-.2.208-.367.306-.026.062-.026.062-.054.122s-.083.051-.143.038c-.111.115-.5.291-.548.413l.031.082a2.538,2.538,0,0,0-.552.259c-.252.151-.442.151-.7.285-.229-.062-.429.105-.658.04-.087.048-.177.1-.262.138-.116-.029-.291.058-.38-.033-.113-.03-.087.182-.2.151-.058-.016-.058-.016-.115-.03l-.028-.079c-.175.093-.316-.016-.494.07l-.028-.073c-.174.087-.319-.009-.431.1a1.376,1.376,0,0,0-.732-.085c.028-.064-.029-.075-.092-.085l-.079.054c.021-.067-.5-.027-.554-.035L22.878,22l-.032-.076-.089.054c-.091-.089-.715-.148-.863-.311-.118.115-.232.063-.367.037a6.441,6.441,0,0,1-1.306-.3l-.038-.082a.518.518,0,0,1-.6-.165,2.108,2.108,0,0,1-.227-.042c-.071-.163-.512-.131-.568-.3a2.056,2.056,0,0,1-.314-.263c-.142.087-.5-.345-.57-.372l-.243-.012-.087-.26-.324-.238c-.129-.245-.264-.056-.3-.262" transform="translate(-2.725 -1.53)" fill="#1a1311"/>
      <path id="패스_8" data-name="패스 8" d="M22.976,9.244c.091,0,.18.007.268.014.431.443,1.281.311,1.843.592.224-.158.467-.063.67-.135l.136.172c.494-.146.761.1,1.23.071l.232-.147c.083.007.173.02.147.1l.114-.072.064.091.116-.071c-.026.079.063.093.147.1.23-.142.37.05.633-.167a.28.28,0,0,0,.232.123c.264-.217.355.012.677-.091l.057.1.118-.06-.054-.1c.03-.082.118-.062.2-.043.139.119.237.3.483.186l.046.1c.151-.1-1.016-.16.8-.218.118-.051.118-.051.232-.1a.272.272,0,0,0,.21.143c.232-.1.428-.136.66-.236.082.02.21.138.361.013l.047.1c.2-.03.476-.037.673-.067-.035.072-.133-.1-.058-.069.28-.139.586-.308.849-.1.309-.034.444-.19.757-.214.1.151.356-.142.5-.06s.155-.135.249.017l.028.109.1-.133A.419.419,0,0,0,36.1,9.1c.071.039.144.083.193.017A3.785,3.785,0,0,1,36.851,9c.028.108.2-.054.152.013a.458.458,0,0,1,.378.033c.044-.066.093-.134.166-.091l.087.067c.078-.014.087-.025.185-.1.972-.085,1.515-.561,2.481-.561.166-.077.339-.153.506-.229s.324.13.356-.045c-.069-.049.2-.115.248-.175.239-.026.385-.438.48-.57-.068-.044,0-.108-.017-.221l.116-.019a2.041,2.041,0,0,1,0-.647c-.021-.108-.189-.039-.143-.1l-.043-.077c-.068-.048.021-.168.067-.232-.046-.224-.25.029-.343-.129l.174-.263c-.081-.16-.437-.253-.58-.347-.1.133-.087.081-.25.166l-.06-.123c-.167.088-.265-.021-.311.044.068.044-.049.04-.095.1s-.095.131-.165.088a.334.334,0,0,0-.258-.075c-.047.07-.047.07-.094.133a3.751,3.751,0,0,1-1.636-.04c-.119.028-.119.028-.233.059.075.04-.061.123-.02.054.076.038-.212-.038-.252.035-.377-.006-1.2.081-1.041-.019-.191-.01-.564.091-.712.016-.054.242-.317-.142-.4,0,.116-.032-.145-.046-.069-.013l.008.1c-.234.069-.252-.148-.484-.064-.077-.032-.112-.069-.071-.14-.079-.03-.132-.074-.171,0l.039.1c-.119.04-.317-.2-.474-.089-.075-.031-.154-.061-.231-.09a1.967,1.967,0,0,1-.84.168l-.053-.1c.08.017-.135.147-.107.072a1.178,1.178,0,0,0-.166-.034,1.6,1.6,0,0,1-.894.092c.166.035-.334-.292-.306-.12-.415.162-.894-.082-1.335-.082-.027-.171-.215.108-.358,0,.029-.075.056-.154-.023-.168-.114.061-.2.034-.3.1-.086-.008-.171-.024-.143-.1-.087-.01-.173-.018-.2.056-.085-.012-.171-.021-.143-.1-.113.066-.222.149-.327.222-.083,0-.064-.087-.043-.166-.364.052-.569-.277-.957-.151.019-.076-.062-.082-.147-.091-.322.213-.774-.019-1.072.13-.049-.154-.239-.08-.411-.082-.105.076-.172-.118-.255-.119A5.823,5.823,0,0,0,24.9,4.905c.166-.164-1.184-.171-1.7-.266-.325-.174-.723-.012-1.062-.1-.016.084-.04.171-.129.167-.249-.088-.4.164-.685.244-.037.167-.223.248-.173.393-.126.165-.143.2-.23.192-.078.337-.134.3-.222.64.091,0,.18.007.156.088-.065.252.091.346.025.6.087,0,.182.012.157.09a.366.366,0,0,0,.091.348c-.021.082-.044.166-.129.162l.064.087-.114.078a.255.255,0,0,1,.023.258c.07.086.339.1.207.263a17.618,17.618,0,0,0,1.8,1.1" transform="translate(-3.646 -0.799)" fill="#1a1311"/>
    </g>
  </g>
</svg>
